<svg xmlns="http://www.w3.org/2000/svg" width="1000" height="720" viewBox="0 0 1000 720" role="img" aria-label="PERSONAL PROJECTS">
  <rect width="100%" height="100%" fill="#fbf7ef"/>
  <rect x="18" y="18" width="964" height="684" fill="none" stroke="#111" stroke-width="3" opacity=".9"/>
  <rect x="95" y="80" width="810" height="520" rx="18" fill="none" stroke="#111" stroke-width="5"/><rect x="170" y="145" width="660" height="390" rx="8" fill="#dba4a1" opacity=".28"/><circle cx="210" cy="260" r="32" fill="none" stroke="#111" stroke-width="4"/><path d="M165 360 C220 300 255 400 295 338" fill="none" stroke="#111" stroke-width="3"/><circle cx="320" cy="260" r="32" fill="none" stroke="#111" stroke-width="4"/><path d="M275 360 C330 300 365 400 405 338" fill="none" stroke="#111" stroke-width="3"/><circle cx="430" cy="260" r="32" fill="none" stroke="#111" stroke-width="4"/><path d="M385 360 C440 300 475 400 515 338" fill="none" stroke="#111" stroke-width="3"/><circle cx="540" cy="260" r="32" fill="none" stroke="#111" stroke-width="4"/><path d="M495 360 C550 300 585 400 625 338" fill="none" stroke="#111" stroke-width="3"/><circle cx="650" cy="260" r="32" fill="none" stroke="#111" stroke-width="4"/><path d="M605 360 C660 300 695 400 735 338" fill="none" stroke="#111" stroke-width="3"/><circle cx="760" cy="260" r="32" fill="none" stroke="#111" stroke-width="4"/><path d="M715 360 C770 300 805 400 845 338" fill="none" stroke="#111" stroke-width="3"/>
  <text x="50%" y="88%" text-anchor="middle" font-family="Arial, sans-serif" font-size="34" letter-spacing="3" fill="#111">PERSONAL PROJECTS</text>
</svg>