<svg xmlns="http://www.w3.org/2000/svg" width="1000" height="720" viewBox="0 0 1000 720" role="img" aria-label="COLLECTION TWO">
  <rect width="100%" height="100%" fill="#fbf7ef"/>
  <rect x="18" y="18" width="964" height="684" fill="none" stroke="#111" stroke-width="3" opacity=".9"/>
  <circle cx="70" cy="100" r="44" fill="none" stroke="#9da98d" stroke-width="8"/><path d="M-5 160 C 60 120, 110 200, 175 154" fill="none" stroke="#111" stroke-width="4" stroke-linecap="round"/><circle cx="205" cy="220" r="44" fill="none" stroke="#9da98d" stroke-width="8"/><path d="M130 280 C 195 240, 245 320, 310 274" fill="none" stroke="#111" stroke-width="4" stroke-linecap="round"/><circle cx="340" cy="340" r="44" fill="none" stroke="#9da98d" stroke-width="8"/><path d="M265 400 C 330 360, 380 440, 445 394" fill="none" stroke="#111" stroke-width="4" stroke-linecap="round"/><circle cx="475" cy="100" r="44" fill="none" stroke="#9da98d" stroke-width="8"/><path d="M400 160 C 465 120, 515 200, 580 154" fill="none" stroke="#111" stroke-width="4" stroke-linecap="round"/><circle cx="610" cy="220" r="44" fill="none" stroke="#9da98d" stroke-width="8"/><path d="M535 280 C 600 240, 650 320, 715 274" fill="none" stroke="#111" stroke-width="4" stroke-linecap="round"/><circle cx="745" cy="340" r="44" fill="none" stroke="#9da98d" stroke-width="8"/><path d="M670 400 C 735 360, 785 440, 850 394" fill="none" stroke="#111" stroke-width="4" stroke-linecap="round"/><circle cx="880" cy="100" r="44" fill="none" stroke="#9da98d" stroke-width="8"/><path d="M805 160 C 870 120, 920 200, 985 154" fill="none" stroke="#111" stroke-width="4" stroke-linecap="round"/><path d="M50 580 q70 -80 140 0" fill="none" stroke="#111" stroke-width="3" opacity=".55"/><path d="M190 580 q70 -80 140 0" fill="none" stroke="#111" stroke-width="3" opacity=".55"/><path d="M330 580 q70 -80 140 0" fill="none" stroke="#111" stroke-width="3" opacity=".55"/><path d="M470 580 q70 -80 140 0" fill="none" stroke="#111" stroke-width="3" opacity=".55"/><path d="M610 580 q70 -80 140 0" fill="none" stroke="#111" stroke-width="3" opacity=".55"/><path d="M750 580 q70 -80 140 0" fill="none" stroke="#111" stroke-width="3" opacity=".55"/><path d="M890 580 q70 -80 140 0" fill="none" stroke="#111" stroke-width="3" opacity=".55"/>
  <text x="50%" y="88%" text-anchor="middle" font-family="Arial, sans-serif" font-size="34" letter-spacing="3" fill="#111">COLLECTION TWO</text>
</svg>